<svg width="203" height="67" viewBox="0 0 203 67" fill="none" xmlns="http://www.w3.org/2000/svg">
<g clip-path="url(#clip0)">
<path d="M15.3453 62.2516C15.1132 62.2471 14.8876 62.1741 14.6968 62.0416C14.506 61.9091 14.3584 61.723 14.2727 61.5068C14.1869 61.2906 14.1668 61.0538 14.2148 60.8261C14.2628 60.5985 14.3768 60.3901 14.5425 60.2271C14.7082 60.0642 14.9183 59.9539 15.1463 59.9101C15.3743 59.8663 15.6101 59.891 15.8241 59.9811C16.0382 60.0711 16.221 60.2225 16.3495 60.4163C16.478 60.61 16.5466 60.8375 16.5467 61.0702C16.5467 61.2273 16.5155 61.3828 16.4548 61.5276C16.3942 61.6725 16.3053 61.8037 16.1935 61.9137C16.0816 62.0237 15.949 62.1103 15.8034 62.1683C15.6577 62.2263 15.502 62.2546 15.3453 62.2516Z" fill="#FD512D"/>
<path d="M11.8093 62.2516C11.5762 62.2516 11.3483 62.1823 11.1545 62.0525C10.9607 61.9227 10.8096 61.7382 10.7204 61.5223C10.6312 61.3064 10.6078 61.0689 10.6533 60.8397C10.6988 60.6106 10.8111 60.4 10.9759 60.2348C11.1407 60.0696 11.3508 59.9571 11.5794 59.9115C11.808 59.8659 12.045 59.8893 12.2604 59.9787C12.4758 60.0681 12.6599 60.2196 12.7894 60.4139C12.9189 60.6081 12.988 60.8365 12.988 61.0702C12.988 61.3835 12.8638 61.684 12.6428 61.9056C12.4217 62.1272 12.1219 62.2516 11.8093 62.2516Z" fill="#FD512D"/>
<path d="M8.27333 62.2516C8.04022 62.2516 7.81233 62.1823 7.6185 62.0525C7.42467 61.9227 7.2736 61.7382 7.18439 61.5223C7.09518 61.3064 7.07183 61.0689 7.11731 60.8397C7.16279 60.6106 7.27505 60.4 7.43989 60.2348C7.60473 60.0696 7.81475 59.9571 8.04339 59.9115C8.27203 59.8659 8.50902 59.8893 8.72439 59.9787C8.93976 60.0681 9.12385 60.2196 9.25336 60.4139C9.38287 60.6081 9.452 60.8365 9.452 61.0702C9.452 61.3835 9.32782 61.684 9.10678 61.9056C8.88574 62.1272 8.58594 62.2516 8.27333 62.2516Z" fill="#FD512D"/>
<path d="M4.71468 62.2516C4.40208 62.2516 4.10228 62.1272 3.88123 61.9056C3.66019 61.684 3.53601 61.3835 3.53601 61.0702C3.53601 60.7569 3.66019 60.4564 3.88123 60.2348C4.10228 60.0133 4.40208 59.8888 4.71468 59.8888C4.86946 59.8888 5.02273 59.9193 5.16573 59.9787C5.30874 60.0381 5.43867 60.1251 5.54812 60.2348C5.65757 60.3445 5.74439 60.4748 5.80362 60.6181C5.86286 60.7614 5.89334 60.9151 5.89334 61.0702C5.89334 61.2253 5.86286 61.379 5.80362 61.5223C5.74439 61.6656 5.65757 61.7959 5.54812 61.9056C5.43867 62.0153 5.30874 62.1023 5.16573 62.1617C5.02273 62.2211 4.86946 62.2516 4.71468 62.2516Z" fill="#FD512D"/>
<path d="M1.17867 62.2516C1.02388 62.2516 0.870613 62.2211 0.727611 62.1617C0.584608 62.1023 0.454673 62.0153 0.345224 61.9056C0.235774 61.7959 0.148954 61.6656 0.0897207 61.5223C0.0304871 61.379 0 61.2253 0 61.0702C0 60.9151 0.0304871 60.7614 0.0897207 60.6181C0.148954 60.4748 0.235774 60.3445 0.345224 60.2348C0.454673 60.1251 0.584608 60.0381 0.727611 59.9787C0.870613 59.9193 1.02388 59.8888 1.17867 59.8888C1.33345 59.8888 1.48672 59.9193 1.62972 59.9787C1.77273 60.0381 1.90266 60.1251 2.01211 60.2348C2.12156 60.3445 2.20838 60.4748 2.26761 60.6181C2.32685 60.7614 2.35733 60.9151 2.35733 61.0702C2.35733 61.2253 2.32685 61.379 2.26761 61.5223C2.20838 61.6656 2.12156 61.7959 2.01211 61.9056C1.90266 62.0153 1.77273 62.1023 1.62972 62.1617C1.48672 62.2211 1.33345 62.2516 1.17867 62.2516Z" fill="#FD512D"/>
<path d="M29.6706 45.5982L22.4173 36.942H28.1746L20.944 26.6501H7.8653L19.856 33.6932H12.1266L29.6706 45.5982Z" fill="#FD512D"/>
<path d="M38.896 9.70127C39.8554 9.70127 40.7932 9.41612 41.5909 8.88188C42.3886 8.34764 43.0103 7.5883 43.3775 6.69989C43.7446 5.81147 43.8406 4.83389 43.6535 3.89076C43.4663 2.94762 43.0043 2.0813 42.326 1.40134C41.6476 0.721379 40.7833 0.25832 39.8423 0.0707188C38.9014 -0.116882 37.9261 -0.0205984 37.0397 0.347394C36.1534 0.715386 35.3958 1.33856 34.8628 2.13811C34.3298 2.93766 34.0453 3.87767 34.0453 4.83928C34.0513 6.12692 34.5643 7.36012 35.4727 8.27063C36.3811 9.18113 37.6114 9.6953 38.896 9.70127Z" fill="#FD512D"/>
<path d="M61.6307 54.2316L60.9054 54.2771L54.2867 30.2852C54.8206 30.2588 55.3311 30.0579 55.7404 29.7133C56.1497 29.3687 56.4352 28.8993 56.5534 28.3768C56.6962 27.7354 56.5812 27.0634 56.2333 26.5063C55.8855 25.9493 55.3327 25.552 54.6947 25.4005L44.404 23.1058C44.2907 20.8566 43.928 18.1075 42.976 15.722C42.3453 14.0417 41.3004 12.5488 39.9387 11.3825C37.8534 9.88304 34.476 11.0872 34.476 15.2903V56.0719C33.6298 54.3881 32.3345 52.9722 30.734 51.9816C29.1335 50.991 27.2904 50.4644 25.4094 50.4602C24.0459 50.4564 22.6958 50.7303 21.4412 51.2654C20.1865 51.8004 19.0535 52.5854 18.1107 53.5728C17.9123 53.7776 17.8032 54.0531 17.8075 54.3386C17.8117 54.6241 17.929 54.8961 18.1334 55.095C18.3377 55.2938 18.6126 55.4031 18.8974 55.3989C19.1822 55.3946 19.4536 55.2771 19.652 55.0723C20.394 54.2913 21.2875 53.6708 22.2776 53.2488C23.2677 52.8269 24.3335 52.6124 25.4094 52.6185C27.3266 52.6194 29.1799 53.3102 30.6317 54.5653C32.0836 55.8204 33.0376 57.5564 33.32 59.4571H31.6654C31.3839 57.9154 30.5464 56.5313 29.3125 55.5686C28.0786 54.6058 26.5345 54.1317 24.9743 54.2364C23.4141 54.3412 21.9469 55.0176 20.8522 56.1367C19.7574 57.2558 19.1116 58.7395 19.0378 60.3051C18.964 61.8707 19.4674 63.4088 20.452 64.6263C21.4366 65.8439 22.8337 66.6559 24.3771 66.9077C25.9204 67.1594 27.5023 66.8333 28.8212 65.9914C30.1402 65.1495 31.1041 63.8508 31.5294 62.3425H49.1867C49.3931 62.3416 49.5969 62.2965 49.7845 62.2103C49.9721 62.1241 50.1392 61.9988 50.2747 61.8427L57.6414 53.2547L58.1854 55.254C56.8987 56.0875 55.9549 57.358 55.5269 58.8325C55.099 60.3069 55.2155 61.8866 55.8553 63.2819C56.4951 64.6772 57.6152 65.7946 59.0102 66.4292C60.4053 67.0639 61.9818 67.1733 63.4508 66.7374C64.9198 66.3015 66.1828 65.3495 67.0083 64.0559C67.8338 62.7623 68.1665 61.2138 67.9453 59.6942C67.7242 58.1747 66.964 56.786 65.8042 55.7827C64.6444 54.7794 63.1627 54.2287 61.6307 54.2316ZM25.4094 62.547C24.8984 62.547 24.4083 62.3435 24.047 61.9814C23.6857 61.6192 23.4827 61.128 23.4827 60.6158C23.4782 60.2275 23.5893 59.8466 23.8017 59.5219C24.0142 59.1971 24.3184 58.9431 24.6755 58.7924C25.0326 58.6418 25.4264 58.6011 25.8067 58.6758C26.1869 58.7505 26.5363 58.937 26.8103 59.2116C27.0843 59.4863 27.2704 59.8365 27.3449 60.2176C27.4193 60.5987 27.3788 60.9935 27.2285 61.3514C27.0782 61.7093 26.8248 62.0142 26.5008 62.2272C26.1768 62.4401 25.7968 62.5515 25.4094 62.547ZM56.3947 50.3011L48.5294 59.4344H39.8934L44.0867 29.6036L40.0974 28.7176C39.9747 28.6887 39.8609 28.6301 39.7661 28.5469C39.6712 28.4637 39.5982 28.3585 39.5534 28.2404L36.2894 19.0845C36.2471 18.99 36.2249 18.8878 36.224 18.7843C36.2231 18.6807 36.2436 18.5782 36.2843 18.483C36.3249 18.3878 36.3847 18.3021 36.4601 18.2312C36.5354 18.1604 36.6245 18.1059 36.7218 18.0713C36.8192 18.0367 36.9226 18.0227 37.0256 18.0301C37.1286 18.0375 37.229 18.0662 37.3204 18.1145C37.4118 18.1627 37.4922 18.2294 37.5566 18.3103C37.6211 18.3912 37.6681 18.4846 37.6947 18.5846L40.8 27.3544L51.1134 29.6718L56.7347 50.0058C56.606 50.085 56.4912 50.1848 56.3947 50.3011ZM61.6307 62.547C61.1197 62.547 60.6297 62.3435 60.2683 61.9814C59.907 61.6192 59.704 61.128 59.704 60.6158C59.6995 60.2275 59.8106 59.8466 60.0231 59.5219C60.2355 59.1971 60.5397 58.9431 60.8969 58.7924C61.254 58.6418 61.6478 58.6011 62.028 58.6758C62.4082 58.7505 62.7576 58.937 63.0316 59.2116C63.3056 59.4863 63.4917 59.8365 63.5662 60.2176C63.6407 60.5987 63.6002 60.9935 63.4498 61.3514C63.2995 61.7093 63.0461 62.0142 62.7221 62.2272C62.3981 62.4401 62.0181 62.5515 61.6307 62.547Z" fill="#FD512D"/>
</g>
<path d="M102.856 23.384V26H90.256V9.2H102.52V11.816H93.376V16.184H101.488V18.752H93.376V23.384H102.856ZM106.046 8.192H109.046V26H106.046V8.192ZM125.032 19.664C125.032 19.872 125.016 20.168 124.984 20.552H114.928C115.104 21.496 115.56 22.248 116.296 22.808C117.048 23.352 117.976 23.624 119.08 23.624C120.488 23.624 121.648 23.16 122.56 22.232L124.168 24.08C123.592 24.768 122.864 25.288 121.984 25.64C121.104 25.992 120.112 26.168 119.008 26.168C117.6 26.168 116.36 25.888 115.288 25.328C114.216 24.768 113.384 23.992 112.792 23C112.216 21.992 111.928 20.856 111.928 19.592C111.928 18.344 112.208 17.224 112.768 16.232C113.344 15.224 114.136 14.44 115.144 13.88C116.152 13.32 117.288 13.04 118.552 13.04C119.8 13.04 120.912 13.32 121.888 13.88C122.88 14.424 123.648 15.2 124.192 16.208C124.752 17.2 125.032 18.352 125.032 19.664ZM118.552 15.44C117.592 15.44 116.776 15.728 116.104 16.304C115.448 16.864 115.048 17.616 114.904 18.56H122.176C122.048 17.632 121.656 16.88 121 16.304C120.344 15.728 119.528 15.44 118.552 15.44ZM133.793 26.168C132.465 26.168 131.273 25.888 130.217 25.328C129.161 24.768 128.337 23.992 127.745 23C127.153 21.992 126.857 20.856 126.857 19.592C126.857 18.328 127.153 17.2 127.745 16.208C128.337 15.216 129.153 14.44 130.193 13.88C131.249 13.32 132.449 13.04 133.793 13.04C135.057 13.04 136.161 13.296 137.105 13.808C138.065 14.32 138.785 15.056 139.265 16.016L136.961 17.36C136.593 16.768 136.129 16.328 135.569 16.04C135.025 15.736 134.425 15.584 133.769 15.584C132.649 15.584 131.721 15.952 130.985 16.688C130.249 17.408 129.881 18.376 129.881 19.592C129.881 20.808 130.241 21.784 130.961 22.52C131.697 23.24 132.633 23.6 133.769 23.6C134.425 23.6 135.025 23.456 135.569 23.168C136.129 22.864 136.593 22.416 136.961 21.824L139.265 23.168C138.769 24.128 138.041 24.872 137.081 25.4C136.137 25.912 135.041 26.168 133.793 26.168ZM149.727 25.304C149.375 25.592 148.943 25.808 148.431 25.952C147.935 26.096 147.407 26.168 146.847 26.168C145.439 26.168 144.351 25.8 143.583 25.064C142.815 24.328 142.431 23.256 142.431 21.848V15.68H140.319V13.28H142.431V10.352H145.431V13.28H148.863V15.68H145.431V21.776C145.431 22.4 145.583 22.88 145.887 23.216C146.191 23.536 146.631 23.696 147.207 23.696C147.879 23.696 148.439 23.52 148.887 23.168L149.727 25.304ZM155.051 15.056C155.915 13.712 157.435 13.04 159.611 13.04V15.896C159.355 15.848 159.123 15.824 158.915 15.824C157.747 15.824 156.835 16.168 156.179 16.856C155.523 17.528 155.195 18.504 155.195 19.784V26H152.195V13.184H155.051V15.056ZM162.156 13.184H165.156V26H162.156V13.184ZM163.668 11.072C163.124 11.072 162.668 10.904 162.3 10.568C161.932 10.216 161.748 9.784 161.748 9.272C161.748 8.76 161.932 8.336 162.3 8C162.668 7.648 163.124 7.472 163.668 7.472C164.212 7.472 164.668 7.64 165.036 7.976C165.404 8.296 165.588 8.704 165.588 9.2C165.588 9.728 165.404 10.176 165.036 10.544C164.684 10.896 164.228 11.072 163.668 11.072ZM174.973 26.168C173.645 26.168 172.453 25.888 171.397 25.328C170.341 24.768 169.517 23.992 168.925 23C168.333 21.992 168.037 20.856 168.037 19.592C168.037 18.328 168.333 17.2 168.925 16.208C169.517 15.216 170.333 14.44 171.373 13.88C172.429 13.32 173.629 13.04 174.973 13.04C176.237 13.04 177.341 13.296 178.285 13.808C179.245 14.32 179.965 15.056 180.445 16.016L178.141 17.36C177.773 16.768 177.309 16.328 176.749 16.04C176.205 15.736 175.605 15.584 174.949 15.584C173.829 15.584 172.901 15.952 172.165 16.688C171.429 17.408 171.061 18.376 171.061 19.592C171.061 20.808 171.421 21.784 172.141 22.52C172.877 23.24 173.813 23.6 174.949 23.6C175.605 23.6 176.205 23.456 176.749 23.168C177.309 22.864 177.773 22.416 178.141 21.824L180.445 23.168C179.949 24.128 179.221 24.872 178.261 25.4C177.317 25.912 176.221 26.168 174.973 26.168ZM95.464 55.24C94.168 55.24 92.912 55.056 91.696 54.688C90.496 54.32 89.544 53.832 88.84 53.224L89.92 50.8C90.608 51.344 91.448 51.792 92.44 52.144C93.448 52.48 94.456 52.648 95.464 52.648C96.712 52.648 97.64 52.448 98.248 52.048C98.872 51.648 99.184 51.12 99.184 50.464C99.184 49.984 99.008 49.592 98.656 49.288C98.32 48.968 97.888 48.72 97.36 48.544C96.832 48.368 96.112 48.168 95.2 47.944C93.92 47.64 92.88 47.336 92.08 47.032C91.296 46.728 90.616 46.256 90.04 45.616C89.48 44.96 89.2 44.08 89.2 42.976C89.2 42.048 89.448 41.208 89.944 40.456C90.456 39.688 91.216 39.08 92.224 38.632C93.248 38.184 94.496 37.96 95.968 37.96C96.992 37.96 98 38.088 98.992 38.344C99.984 38.6 100.84 38.968 101.56 39.448L100.576 41.872C99.84 41.44 99.072 41.112 98.272 40.888C97.472 40.664 96.696 40.552 95.944 40.552C94.712 40.552 93.792 40.76 93.184 41.176C92.592 41.592 92.296 42.144 92.296 42.832C92.296 43.312 92.464 43.704 92.8 44.008C93.152 44.312 93.592 44.552 94.12 44.728C94.648 44.904 95.368 45.104 96.28 45.328C97.528 45.616 98.552 45.92 99.352 46.24C100.152 46.544 100.832 47.016 101.392 47.656C101.968 48.296 102.256 49.16 102.256 50.248C102.256 51.176 102 52.016 101.488 52.768C100.992 53.52 100.232 54.12 99.208 54.568C98.184 55.016 96.936 55.24 95.464 55.24ZM110.942 55.168C109.614 55.168 108.422 54.888 107.366 54.328C106.31 53.768 105.486 52.992 104.894 52C104.302 50.992 104.006 49.856 104.006 48.592C104.006 47.328 104.302 46.2 104.894 45.208C105.486 44.216 106.302 43.44 107.342 42.88C108.398 42.32 109.598 42.04 110.942 42.04C112.206 42.04 113.31 42.296 114.254 42.808C115.214 43.32 115.934 44.056 116.414 45.016L114.11 46.36C113.742 45.768 113.278 45.328 112.718 45.04C112.174 44.736 111.574 44.584 110.918 44.584C109.798 44.584 108.87 44.952 108.134 45.688C107.398 46.408 107.03 47.376 107.03 48.592C107.03 49.808 107.39 50.784 108.11 51.52C108.846 52.24 109.782 52.6 110.918 52.6C111.574 52.6 112.174 52.456 112.718 52.168C113.278 51.864 113.742 51.416 114.11 50.824L116.414 52.168C115.918 53.128 115.19 53.872 114.23 54.4C113.286 54.912 112.19 55.168 110.942 55.168ZM124.58 55.168C123.284 55.168 122.116 54.888 121.076 54.328C120.036 53.768 119.22 52.992 118.628 52C118.052 50.992 117.764 49.856 117.764 48.592C117.764 47.328 118.052 46.2 118.628 45.208C119.22 44.216 120.036 43.44 121.076 42.88C122.116 42.32 123.284 42.04 124.58 42.04C125.892 42.04 127.068 42.32 128.108 42.88C129.148 43.44 129.956 44.216 130.532 45.208C131.124 46.2 131.42 47.328 131.42 48.592C131.42 49.856 131.124 50.992 130.532 52C129.956 52.992 129.148 53.768 128.108 54.328C127.068 54.888 125.892 55.168 124.58 55.168ZM124.58 52.6C125.684 52.6 126.596 52.232 127.316 51.496C128.036 50.76 128.396 49.792 128.396 48.592C128.396 47.392 128.036 46.424 127.316 45.688C126.596 44.952 125.684 44.584 124.58 44.584C123.476 44.584 122.564 44.952 121.844 45.688C121.14 46.424 120.788 47.392 120.788 48.592C120.788 49.792 121.14 50.76 121.844 51.496C122.564 52.232 123.476 52.6 124.58 52.6ZM140.048 55.168C138.752 55.168 137.584 54.888 136.544 54.328C135.504 53.768 134.688 52.992 134.096 52C133.52 50.992 133.232 49.856 133.232 48.592C133.232 47.328 133.52 46.2 134.096 45.208C134.688 44.216 135.504 43.44 136.544 42.88C137.584 42.32 138.752 42.04 140.048 42.04C141.36 42.04 142.536 42.32 143.576 42.88C144.616 43.44 145.424 44.216 146 45.208C146.592 46.2 146.888 47.328 146.888 48.592C146.888 49.856 146.592 50.992 146 52C145.424 52.992 144.616 53.768 143.576 54.328C142.536 54.888 141.36 55.168 140.048 55.168ZM140.048 52.6C141.152 52.6 142.064 52.232 142.784 51.496C143.504 50.76 143.864 49.792 143.864 48.592C143.864 47.392 143.504 46.424 142.784 45.688C142.064 44.952 141.152 44.584 140.048 44.584C138.944 44.584 138.032 44.952 137.312 45.688C136.608 46.424 136.256 47.392 136.256 48.592C136.256 49.792 136.608 50.76 137.312 51.496C138.032 52.232 138.944 52.6 140.048 52.6ZM157.461 54.304C157.109 54.592 156.677 54.808 156.165 54.952C155.669 55.096 155.141 55.168 154.581 55.168C153.173 55.168 152.085 54.8 151.317 54.064C150.549 53.328 150.165 52.256 150.165 50.848V44.68H148.053V42.28H150.165V39.352H153.165V42.28H156.597V44.68H153.165V50.776C153.165 51.4 153.317 51.88 153.621 52.216C153.925 52.536 154.365 52.696 154.941 52.696C155.613 52.696 156.173 52.52 156.621 52.168L157.461 54.304ZM171.555 48.664C171.555 48.872 171.539 49.168 171.507 49.552H161.451C161.627 50.496 162.083 51.248 162.819 51.808C163.571 52.352 164.499 52.624 165.603 52.624C167.011 52.624 168.171 52.16 169.083 51.232L170.691 53.08C170.115 53.768 169.387 54.288 168.507 54.64C167.627 54.992 166.635 55.168 165.531 55.168C164.123 55.168 162.883 54.888 161.811 54.328C160.739 53.768 159.907 52.992 159.315 52C158.739 50.992 158.451 49.856 158.451 48.592C158.451 47.344 158.731 46.224 159.291 45.232C159.867 44.224 160.659 43.44 161.667 42.88C162.675 42.32 163.811 42.04 165.075 42.04C166.323 42.04 167.435 42.32 168.411 42.88C169.403 43.424 170.171 44.2 170.715 45.208C171.275 46.2 171.555 47.352 171.555 48.664ZM165.075 44.44C164.115 44.44 163.299 44.728 162.627 45.304C161.971 45.864 161.571 46.616 161.427 47.56H168.699C168.571 46.632 168.179 45.88 167.523 45.304C166.867 44.728 166.051 44.44 165.075 44.44ZM177.293 44.056C178.157 42.712 179.677 42.04 181.853 42.04V44.896C181.597 44.848 181.365 44.824 181.157 44.824C179.989 44.824 179.077 45.168 178.421 45.856C177.765 46.528 177.437 47.504 177.437 48.784V55H174.437V42.184H177.293V44.056Z" fill="white"/>
<defs>
<clipPath id="clip0">
<rect width="68" height="67" fill="white"/>
</clipPath>
</defs>
</svg>
